<?xml version="1.0" encoding="UTF-8" standalone="no"?>
<svg width="16px" height="20px" viewBox="0 0 16 20" version="1.1" xmlns="http://www.w3.org/2000/svg" xmlns:xlink="http://www.w3.org/1999/xlink">
    <!-- Generator: Sketch 3.6.1 (26313) - http://www.bohemiancoding.com/sketch -->
    <title>Combined Shape</title>
    <desc>Created with Sketch.</desc>
    <defs></defs>
    <g id="mobile-design" stroke="none" stroke-width="1" fill="none" fill-rule="evenodd">
        <g id="game" transform="translate(-97.000000, -625.000000)" fill="#646464">
            <g id="fruit" transform="translate(97.000000, 625.000000)">
                <g id="Capa_1">
                    <g id="Group">
                        <path d="M8.448,5.68156863 C8.7996,5.10588235 9.356,4.28196078 10.0588,3.49137255 L10.0596,3.49137255 C10.6548,2.82039216 11.8204,1.95921569 11.8204,1.95921569 C11.9956,1.82941176 11.9768,1.64862745 11.7776,1.55764706 L10.3688,0.912156863 C10.1696,0.820784314 9.8988,0.88745098 9.7668,1.05960784 C9.7668,1.05960784 8.7248,2.52509804 7.4984,5.64470588 C3.7064,3.96313725 0.102,6.31843137 0.102,10.4141176 C0.102,14.6921569 3.4592,21.1905882 7.9992,19.2290196 C12.7808,21.2576471 15.8988,14.692549 15.8988,10.4141176 C15.8988,6.28313725 12.6588,3.86117647 8.448,5.68156863 Z M7.5988,4.29607843 C7.818,4.27803922 8.0116,4.08784314 8.0292,3.87333333 C8.0292,3.87333333 8.17,2.20039216 6.9808,1.03333333 C5.788,-0.134117647 4.0848,0.00509803922 4.0848,0.00509803922 C3.8656,0.0231372549 3.672,0.213333333 3.654,0.427843137 C3.654,0.427843137 3.5108,2.10156863 4.7016,3.26901961 C5.8916,4.43529412 7.5988,4.29607843 7.5988,4.29607843 Z" id="Combined-Shape"></path>
                    </g>
                </g>
            </g>
        </g>
    </g>
</svg>