<?xml version="1.0" encoding="UTF-8" standalone="no"?>
<svg width="18px" height="19px" viewBox="0 0 18 19" version="1.1" xmlns="http://www.w3.org/2000/svg" xmlns:xlink="http://www.w3.org/1999/xlink">
    <!-- Generator: Sketch 3.6.1 (26313) - http://www.bohemiancoding.com/sketch -->
    <title>Group</title>
    <desc>Created with Sketch.</desc>
    <defs></defs>
    <g id="mobile-design" stroke="none" stroke-width="1" fill="none" fill-rule="evenodd">
        <g id="game" transform="translate(-166.000000, -627.000000)">
            <g id="shape" transform="translate(166.000000, 627.000000)">
                <g id="Capa_1">
                    <g id="Group">
                        <path d="M17.6093333,7.58642857 C17.602,7.45478571 17.5953333,7.32517857 17.5886667,7.19625 C17.5226667,6.21910714 17.4026667,5.36953571 17.2653333,4.60410714 C17.1293333,3.84139286 16.9766667,3.17639286 16.8186667,2.61657143 C16.66,2.05471429 16.498,1.60957143 16.3466667,1.27842857 C16.2826667,1.12167857 16.204,0.981892857 16.1613333,0.896392857 C16.116,0.808857143 16.092,0.763392857 16.092,0.763392857 C15.7593333,0.126214286 15.0033333,-0.169642857 14.3273333,0.09975 C13.5993333,0.3895 13.2406667,1.2255 13.5253333,1.9665 L13.594,2.14292857 C13.594,2.14292857 13.6026667,2.16464286 13.6186667,2.20671429 C13.634,2.25285714 13.6606667,2.299 13.6933333,2.40553571 C13.7633333,2.58739286 13.8506667,2.92464286 13.954,3.3725 C14.0526667,3.82375 14.1526667,4.40257143 14.2333333,5.07775 C14.314,5.75021429 14.3766667,6.53328571 14.4013333,7.34417857 C14.4026667,7.43917857 14.404,7.53485714 14.406,7.63189286 C14.4053333,7.73842857 14.4046667,7.84632143 14.4033333,7.95489286 C14.3893333,8.15235714 14.3773333,8.35321429 14.3633333,8.55746429 L14.3533333,8.7115 L14.3306667,8.86485714 C14.3166667,8.96732143 14.302,9.07114286 14.288,9.17428571 C14.2713333,9.27810714 14.264,9.38464286 14.2413333,9.48778571 C14.218,9.59092857 14.194,9.69610714 14.1713333,9.79992857 C13.9846667,10.6372857 13.6606667,11.4834643 13.198,12.2536429 C12.7353333,13.0224643 12.1166667,13.7023929 11.4053333,14.1902857 C11.04,14.4087857 10.6686667,14.6259286 10.2693333,14.7331429 L10.122,14.7813214 L10.0486667,14.80575 C10.0253333,14.8132143 10.008,14.8132143 9.98733333,14.8172857 C9.908,14.8295 9.83,14.8457857 9.752,14.8654643 L9.69333333,14.8803929 L9.664,14.8885357 L9.61,14.8919286 L9.39066667,14.9055 L9.038,14.9265357 L9.04,14.9265357 L9.04933333,14.9272143 C9.00466667,14.92925 9.16333333,14.9245 8.95133333,14.9312857 L9.038,14.9258571 L9.02066667,14.9245 L8.98266667,14.9204286 L8.906,14.915 L8.75266667,14.9055 C8.65066667,14.9000714 8.54733333,14.9014286 8.448,14.8736071 C8.34733333,14.85325 8.24666667,14.83425 8.146,14.8179643 C8.044,14.80575 7.94866667,14.7568929 7.84933333,14.7304286 C7.45,14.6232143 7.07866667,14.4060714 6.71333333,14.1875714 C6,13.699 5.38133333,13.01975 4.91866667,12.2509286 C4.45533333,11.4814286 4.13266667,10.63525 3.94533333,9.79721429 C3.92133333,9.69339286 3.898,9.58821429 3.87466667,9.48507143 C3.852,9.38260714 3.84666667,9.29235714 3.83066667,9.19667857 C3.81666667,9.10235714 3.80266667,9.00871429 3.78866667,8.91575 L3.766,8.77664286 L3.756,8.59682143 C3.74133333,8.36067857 3.72733333,8.12860714 3.71333333,7.90060714 L3.71333333,7.91553571 L3.71333333,7.93453571 L3.71333333,7.94403571 C3.71266667,7.91757143 3.71466667,8.01732143 3.712,7.88635714 C3.712,7.89110714 3.71266667,7.89585714 3.71266667,7.89992857 L3.71266667,7.87685714 L3.712,7.80153571 L3.71066667,7.65157143 C3.712,7.54842857 3.714,7.44664286 3.71533333,7.34621429 C3.74066667,6.52921429 3.80333333,5.75021429 3.884,5.07639286 C3.96466667,4.40053571 4.064,3.82239286 4.16333333,3.37114286 C4.18733333,3.25646429 4.212,3.15128571 4.23733333,3.05628571 C4.262,2.96128571 4.28133333,2.86560714 4.30533333,2.78892857 C4.328,2.70953571 4.34866667,2.63557143 4.36733333,2.56839286 C4.382,2.52157143 4.39533333,2.47882143 4.40733333,2.44082143 C4.41266667,2.42114286 4.418,2.40282143 4.42266667,2.38585714 C4.42733333,2.37025 4.44466667,2.33428571 4.45333333,2.31325 C4.47466667,2.26439286 4.492,2.223 4.50666667,2.19042857 C4.53466667,2.12325 4.54933333,2.09 4.54933333,2.09 L4.55466667,2.07710714 C4.84866667,1.39242857 4.58066667,0.582214286 3.92333333,0.223928571 C3.23066667,-0.154035714 2.36866667,0.111285714 1.99733333,0.815642857 C1.99733333,0.815642857 1.98,0.848214286 1.94666667,0.912 C1.93,0.943892857 1.90933333,0.983928571 1.884,1.03075 C1.87066667,1.05721429 1.86066667,1.07282143 1.842,1.11353571 C1.824,1.15357143 1.80533333,1.197 1.78466667,1.24178571 C1.74533333,1.33271429 1.702,1.43585714 1.65333333,1.5485 C1.618,1.64417857 1.57866667,1.748 1.53666667,1.86064286 C1.45666667,2.08321429 1.37266667,2.33767857 1.29733333,2.61589286 C1.13933333,3.17639286 0.986666667,3.84139286 0.850666667,4.60410714 C0.714,5.3675 0.592666667,6.22114286 0.528,7.19285714 C0.520666667,7.31567857 0.514,7.43985714 0.506666667,7.56539286 L0.5,7.75946429 L0.496666667,7.85717857 L0.495333333,7.90535714 L0.494666667,7.92978571 L0.494,7.942 C0.494666667,7.97592857 0.492,7.88296429 0.495333333,8.02139286 C0.5,8.25414286 0.504666667,8.49164286 0.509333333,8.73253571 L0.513333333,8.91439286 L0.534666667,9.139 C0.55,9.28964286 0.566,9.44164286 0.582,9.59432143 C0.600666667,9.74496429 0.612,9.90646429 0.638666667,10.0516786 C0.666,10.1962143 0.693333333,10.3421071 0.721333333,10.488 C0.946,11.6558214 1.35533333,12.8725 2.02466667,14.022 C2.69133333,15.16675 3.606,16.2667143 4.81333333,17.0938929 C5.42933333,17.4867857 6.08533333,17.8532143 6.814,18.0703571 C6.99533333,18.1239643 7.17066667,18.19725 7.35866667,18.2298214 L7.91933333,18.3390714 C8.106,18.3818214 8.296,18.3913214 8.48666667,18.4055714 L8.77266667,18.4232143 L8.91533333,18.4320357 L8.98666667,18.4361071 L9.02266667,18.4381429 L9.04066667,18.4388214 C9.09466667,18.4374643 8.94533333,18.4428929 9.166,18.4361071 L9.60466667,18.4069286 L9.82466667,18.392 L9.88,18.3879286 L9.95866667,18.3757143 L10.116,18.3499286 C10.3253333,18.3146429 10.536,18.2752857 10.7433333,18.2325357 C10.794,18.221 10.85,18.2121786 10.8966667,18.1979286 L11.032,18.1558571 L11.302,18.069 C12.0313333,17.8518571 12.6866667,17.4861071 13.3026667,17.0925357 C14.5106667,16.2646786 15.4246667,15.1647143 16.092,14.0206429 C16.7613333,12.8711429 17.1706667,11.6544643 17.3953333,10.4866429 C17.4226667,10.3393929 17.4506667,10.1941786 17.478,10.0503214 C17.504,9.90578571 17.5133333,9.76057143 17.5313333,9.61807143 C17.546,9.47489286 17.562,9.33239286 17.5766667,9.19192857 L17.598,8.98089286 L17.604,8.77121429 C17.61,8.49367857 17.6166667,8.22021429 17.6213333,7.95217857 C17.6173333,7.83071429 17.6133333,7.70721429 17.6093333,7.58642857 L17.6093333,7.58642857 Z M1.842,7.25596429 C1.886,6.39146429 1.97733333,5.60635714 2.08466667,4.90539286 L2.59133333,5.20328571 C2.508,5.83435714 2.44,6.52989286 2.40133333,7.28310714 C2.39733333,7.39303571 2.39333333,7.50432143 2.38933333,7.61628571 C2.388,7.70653571 2.38666667,7.79882143 2.386,7.89042857 L1.824,7.89042857 C1.826,7.66242857 1.83266667,7.46496429 1.842,7.25596429 L1.842,7.25596429 Z M2.05466667,10.2043571 C2.02866667,10.0754286 2.00266667,9.94717857 1.97666667,9.81892857 C1.95133333,9.69135714 1.94266667,9.55971429 1.92533333,9.43146429 C1.91,9.30321429 1.89466667,9.17496429 1.88,9.04875 L1.86533333,8.92321429 L2.434,8.92321429 L2.44466667,9.00871429 C2.45933333,9.12610714 2.474,9.2435 2.48866667,9.36225 C2.50533333,9.481 2.51333333,9.60042857 2.53733333,9.72053571 C2.562,9.84064286 2.58733333,9.96210714 2.61266667,10.0835714 C2.702,10.5151429 2.824,10.9507857 2.97733333,11.3830357 L2.47066667,11.6809286 C2.292,11.1896429 2.154,10.6929286 2.05466667,10.2043571 L2.05466667,10.2043571 Z M4.66133333,15.1253571 C4.09,14.5743571 3.60866667,13.9480357 3.222,13.2905 C3.096,13.0760714 2.98133333,12.8575714 2.87466667,12.6377143 L3.37733333,12.3418571 C3.48266667,12.559 3.59666667,12.7741071 3.72133333,12.9844643 C4.062,13.5592143 4.478,14.1075 4.964,14.5906429 L4.66133333,15.1253571 L4.66133333,15.1253571 Z M9.03866667,16.3746071 L9.05333333,16.3739286 C9.05266667,16.3739286 9.05,16.3739286 9.03866667,16.3746071 L9.03866667,16.3746071 Z M14.8933333,13.2898214 C14.5066667,13.9473571 14.0246667,14.5743571 13.454,15.1246786 L13.1506667,14.5906429 C13.6366667,14.1075 14.0526667,13.5592143 14.3933333,12.9844643 C14.518,12.7741071 14.6313333,12.559 14.7373333,12.3418571 L15.24,12.6377143 C15.134,12.85825 15.0193333,13.0753929 14.8933333,13.2898214 L14.8933333,13.2898214 Z M16.0613333,10.2043571 C15.962,10.6936071 15.8233333,11.1896429 15.6453333,11.6829643 L15.138,11.3850714 C15.2913333,10.9521429 15.4133333,10.5171786 15.5033333,10.0856071 C15.5826667,9.69271429 15.6406667,9.30525 15.6773333,8.92525 L16.2453333,8.92525 C16.2073333,9.34325 16.148,9.77075 16.0613333,10.2043571 L16.0613333,10.2043571 Z M15.7293333,7.89042857 C15.73,7.68482143 15.7253333,7.48192857 15.714,7.28242857 C15.6753333,6.52989286 15.6073333,5.83435714 15.524,5.20328571 L16.0313333,4.90539286 C16.138,5.60635714 16.23,6.39078571 16.2733333,7.25596429 C16.286,7.46225 16.2913333,7.67396429 16.2913333,7.88975 L15.7293333,7.89042857 L15.7293333,7.89042857 L15.7293333,7.89042857 Z" id="Shape" fill="#646464"></path>
                        <path id="Shape" fill="#000000" d="M9.097,14.9275357 L9.083,14.9265357 L9.08,14.9265357 L8.95,14.9345357 C9.268,14.9235357 9.03,14.9295357 9.097,14.9275357 L9.097,14.9275357 Z"></path>
                        <path id="Shape" fill="#000000" d="M3.71366667,7.97171429 L3.71366667,7.95771429 L3.71366667,7.92971429 L3.71366667,7.90771429 C3.71366667,7.90071429 3.71266667,7.89371429 3.71266667,7.88771429 C3.71566667,8.07871429 3.71366667,7.93171429 3.71366667,7.97171429 L3.71366667,7.97171429 Z"></path>
                        <path id="Shape" fill="#000000" d="M9.06066667,16.3739286 L9.03866667,16.3749286 C9.05566667,16.3739286 9.05966667,16.3739286 9.06066667,16.3739286 L9.06066667,16.3739286 Z"></path>
                    </g>
                </g>
            </g>
        </g>
    </g>
</svg>