<?xml version="1.0" encoding="UTF-8" standalone="no"?>
<svg width="27px" height="14px" viewBox="0 0 27 14" version="1.1" xmlns="http://www.w3.org/2000/svg" xmlns:xlink="http://www.w3.org/1999/xlink">
    <!-- Generator: Sketch 3.6.1 (26313) - http://www.bohemiancoding.com/sketch -->
    <title>Shape</title>
    <desc>Created with Sketch.</desc>
    <defs></defs>
    <g id="mobile-design" stroke="none" stroke-width="1" fill="none" fill-rule="evenodd">
        <g id="game" transform="translate(-22.000000, -631.000000)" fill="#646464">
            <g id="cup" transform="translate(22.000000, 631.000000)">
                <g id="Capa_1">
                    <g id="Group">
                        <path d="M26.608,3.42 C26.472,2.534 26.009,1.823 25.308,1.418 C24.917,1.193 24.486,1.079 24.024,1.079 C23.854,1.079 23.686,1.098 23.52,1.127 C23.533,0.789 23.541,0.45 23.541,0.11 L0.787,0.11 C0.787,5.349 2.091,10.558 8.039,12.156 L8.039,13.433 L16.288,13.433 L16.288,12.162 C19.189,11.386 20.993,9.751 22.067,7.661 C22.379,7.792 22.705,7.878 23.056,7.878 C24.241,7.878 25.404,7.14 26.089,5.95 C26.55,5.154 26.735,4.256 26.608,3.42 L26.608,3.42 Z M25.07,5.362 C24.601,6.175 23.812,6.7 23.056,6.7 C22.871,6.7 22.702,6.657 22.542,6.594 C23.042,5.282 23.32,3.844 23.446,2.357 C23.637,2.294 23.831,2.258 24.022,2.258 C24.275,2.258 24.508,2.319 24.715,2.439 C25.103,2.662 25.361,3.073 25.44,3.598 C25.53,4.17 25.397,4.797 25.07,5.362 L25.07,5.362 Z" id="Shape"></path>
                    </g>
                </g>
            </g>
        </g>
    </g>
</svg>