<?xml version="1.0" encoding="UTF-8" standalone="no"?>
<svg width="21px" height="20px" viewBox="0 0 21 20" version="1.1" xmlns="http://www.w3.org/2000/svg" xmlns:xlink="http://www.w3.org/1999/xlink">
    <!-- Generator: Sketch 3.6.1 (26313) - http://www.bohemiancoding.com/sketch -->
    <title>Shape</title>
    <desc>Created with Sketch.</desc>
    <defs></defs>
    <g id="mobile-design" stroke="none" stroke-width="1" fill="none" fill-rule="evenodd">
        <g id="game" transform="translate(-234.000000, -625.000000)" fill="#646464">
            <g id="office-material" transform="translate(234.000000, 625.000000)">
                <g id="Capa_1">
                    <path d="M19.4365161,1.50275862 C18.1548387,0.197931034 16.1395161,-0.86137931 13.8173226,1.50275862 L4.40322581,11.0862069 C4.33074194,11.1524138 3.46432258,11.9806897 3.43383871,13.182069 C3.41487097,13.9241379 3.7136129,14.6158621 4.32329032,15.2365517 C4.84354839,15.7662069 5.46609677,16.0413793 6.12183871,16.0331034 C7.31003226,16.0186207 8.19609677,15.1068966 8.29229032,15.0034483 L15.3747097,7.7937931 C15.6395806,7.52413793 15.6402581,7.08827586 15.3747097,6.81862069 C15.1098387,6.54896552 14.6817097,6.54896552 14.4168387,6.81862069 L7.32358065,14.04 C7.15490323,14.2165517 6.62651613,14.6496552 6.09948387,14.6537931 C5.81090323,14.6558621 5.54332258,14.5268966 5.28116129,14.2606897 C4.94245161,13.9158621 4.78122581,13.577931 4.788,13.2255172 C4.79951613,12.6 5.33332258,12.0896552 5.33874194,12.0834483 L14.7751935,2.47793103 C15.6910645,1.5462069 16.8474194,0.816551724 18.4786452,2.47793103 C19.076129,3.0862069 19.3721613,3.71655172 19.3606452,4.35241379 C19.341,5.39724138 18.509129,6.19172414 18.5003226,6.2 L7.91970968,16.8510345 C7.89667742,16.8744828 6.58858065,18.2206897 4.99596774,18.2317241 C4.158,18.2372414 3.36203226,17.862069 2.63041935,17.117931 C-0.134806452,14.3027586 2.45293548,11.4931034 2.56403226,11.3751724 L10.701871,3.08965517 C10.9667419,2.82 10.9667419,2.38413793 10.701871,2.1137931 C10.4363226,1.84413793 10.0081935,1.84482759 9.744,2.1137931 L1.596,10.4089655 C0.323806452,11.757931 -1.28235484,15.0848276 1.67187097,18.0931034 C2.67309677,19.1117241 3.79829032,19.622069 5.01629032,19.6103448 C7.18267742,19.5910345 8.81525806,17.8924138 8.88367742,17.82 L19.4338065,7.19931034 C19.4636129,7.17241379 20.6748387,6.03655172 20.7148065,4.39655172 C20.739871,3.36482759 20.3097097,2.39103448 19.4365161,1.50275862 L19.4365161,1.50275862 Z" id="Shape"></path>
                </g>
            </g>
        </g>
    </g>
</svg>